<?xml version="1.0" standalone="no"?>
<!DOCTYPE svg PUBLIC "-//W3C//DTD SVG 20010904//EN"
 "http://www.w3.org/TR/2001/REC-SVG-20010904/DTD/svg10.dtd">
<svg version="1.0" xmlns="http://www.w3.org/2000/svg"
 width="33.000000pt" height="33.000000pt" viewBox="0 0 33.000000 33.000000"
 preserveAspectRatio="xMidYMid meet">

<g transform="translate(0.000000,33.000000) scale(0.100000,-0.100000)"
fill="#000000" stroke="none">
<path d="M138 283 c-8 -10 -36 -56 -63 -102 -65 -112 -63 -115 88 -119 108 -2
117 -1 127 18 9 16 3 34 -36 102 -53 93 -72 118 -89 118 -7 0 -19 -8 -27 -17z
m90 -93 c29 -50 50 -95 47 -100 -8 -14 -225 -13 -225 0 0 18 104 190 115 190
6 0 34 -41 63 -90z"/>
<path d="M162 190 c0 -14 2 -19 5 -12 2 6 2 18 0 25 -3 6 -5 1 -5 -13z"/>
</g>
</svg>
