<?xml version="1.0" standalone="no"?>
<!DOCTYPE svg PUBLIC "-//W3C//DTD SVG 20010904//EN"
 "http://www.w3.org/TR/2001/REC-SVG-20010904/DTD/svg10.dtd">
<svg version="1.0" xmlns="http://www.w3.org/2000/svg"
 width="31.000000pt" height="31.000000pt" viewBox="0 0 31.000000 31.000000"
 preserveAspectRatio="xMidYMid meet">

<g transform="translate(0.000000,31.000000) scale(0.100000,-0.100000)"
fill="#000000" stroke="none">
<path d="M90 270 c-12 -8 -11 -13 8 -33 24 -25 29 -47 10 -47 -6 0 -22 10 -35
22 -20 19 -25 20 -33 8 -17 -26 -11 -51 19 -81 18 -18 40 -29 57 -29 16 0 41
-13 66 -36 75 -68 121 -21 49 50 -33 32 -39 44 -34 67 4 22 -1 35 -25 59 -31
31 -56 37 -82 20z m71 -31 c15 -15 20 -30 17 -50 -4 -23 3 -36 34 -66 21 -20
38 -43 38 -50 0 -24 -25 -14 -63 25 -30 31 -43 38 -66 34 -31 -4 -71 25 -71
53 0 12 4 12 28 -2 16 -9 36 -14 45 -10 21 8 22 40 2 57 -8 7 -15 16 -15 21 0
16 30 9 51 -12z"/>
</g>
</svg>
