<svg xmlns="http://www.w3.org/2000/svg" width="28" height="28" viewBox="0 0 28 28"><defs><style>.a,.b{fill:none;}.b{stroke:#003f5c;stroke-linecap:round;stroke-linejoin:round;stroke-width:1.8px;}</style></defs><path class="a" d="M0,0H28V28H0Z"/><path class="b" d="M4,14.5a9.333,9.333,0,0,1,8.167,8.167,7,7,0,0,0,3.5-5.833,10.5,10.5,0,0,0,7-9.333,3.5,3.5,0,0,0-3.5-3.5,10.5,10.5,0,0,0-9.333,7A7,7,0,0,0,4,14.5" transform="translate(0.667 0.667)"/><path class="b" d="M7.508,14a7,7,0,0,0-3.5,7,7,7,0,0,0,7-3.5" transform="translate(0.658 2.333)"/><circle class="b" cx="0.871" cy="0.871" r="0.871" transform="translate(16.681 9.578)"/></svg>