<?xml version="1.0" standalone="no"?>
<!DOCTYPE svg PUBLIC "-//W3C//DTD SVG 20010904//EN"
 "http://www.w3.org/TR/2001/REC-SVG-20010904/DTD/svg10.dtd">
<svg version="1.0" xmlns="http://www.w3.org/2000/svg"
 width="30.000000pt" height="30.000000pt" viewBox="0 0 30.000000 30.000000"
 preserveAspectRatio="xMidYMid meet">

<g transform="translate(0.000000,30.000000) scale(0.100000,-0.100000)"
fill="#000000" stroke="none">
<path d="M120 255 c-7 -9 -19 -14 -26 -11 -19 7 -44 -21 -37 -41 4 -9 -1 -19
-10 -25 -22 -12 -22 -44 -1 -52 10 -4 14 -14 11 -26 -6 -22 16 -45 36 -37 8 3
22 -4 31 -15 16 -18 19 -18 40 -5 12 8 33 17 47 19 17 2 25 10 27 27 2 14 10
34 18 46 13 19 13 24 -1 35 -8 7 -15 23 -15 35 0 28 -22 47 -44 39 -10 -4 -18
0 -22 10 -8 20 -38 21 -54 1z m47 -20 c9 -9 23 -13 34 -10 16 5 19 1 19 -23 0
-18 6 -32 16 -36 16 -6 16 -8 0 -24 -9 -10 -16 -28 -16 -40 0 -17 -6 -22 -25
-22 -13 0 -29 -8 -34 -17 -10 -17 -12 -17 -25 0 -7 9 -25 17 -40 17 -22 0 -26
4 -21 19 3 11 -1 26 -11 35 -15 16 -15 18 1 35 9 11 15 27 13 38 -2 13 2 17
18 15 12 -1 27 4 34 13 15 19 18 19 37 0z"/>
<path d="M112 188 c-34 -34 14 -102 56 -79 28 15 35 40 17 67 -17 26 -53 32
-73 12z m64 -23 c7 -18 -13 -45 -33 -45 -17 0 -27 24 -19 45 7 20 45 19 52 0z"/>
</g>
</svg>
